<svg xmlns="http://www.w3.org/2000/svg" xml:space="preserve" width="1500" height="210" data-id="lg_S9BYuVMgbktOdL85dR" data-version="1"><g data-padding="20"><g transform="translate(10 2.838)scale(.97297)"><rect width="740.08" height="190.23" x="-14.274" y="-394.835" fill="#fff" stroke="#001f3f" stroke-width="3" rx="0" ry="0" transform="translate(404.79 394.9)"/><path fill="#001f3f" stroke="transparent" d="M646.006 87.405h14.47q0-1.32-.81-1.49-.23-.06-.63-.06h-1.79l-13.48-33.02h-3.57l-12.68 33.02h-3.69v1.55h10.49q0-1.32-.81-1.49-.29-.06-.63-.06h-3.06l4.21-11.06h11.64l4.32 11.06h-3.98Zm-6.22-27.83 5.19 13.49h-10.32Zm35.6 26.35h-2.94v-35.96h-10.77v1.5h4.43v31.23q0 2.48-1.73 3-.86.23-2.7.23v1.49h15.15q0-1.26-.75-1.44-.35-.05-.69-.05m16.66 0h-2.36v-23.17h-10.08v1.44h3.74v18.61q0 2.48-1.9 2.94-.69.18-1.84.18v1.49h13.82q0-1.32-.86-1.44-.23-.05-.52-.05m-1.79-31q0-2.36-2.13-3.52-.86-.46-1.78-.46-2.37 0-3.46 2.13-.46.93-.46 1.85 0 2.42 2.13 3.45.86.41 1.79.41 2.36 0 3.45-2.02.46-.86.46-1.84m20.92 30.99h-4.09v-21.67h6.57v-1.5h-6.57v-.34q0-8.99 1.78-10.66.75-.58 1.73-.58 1.5 0 2.54 2.19 1.15 2.42 1.61 2.88.75.81 1.79.81 2.24 0 2.82-1.79.12-.4.12-.8 0-2.42-2.94-3.86-2.02-.93-4.78-.93-6.46 0-9.28 4.9-1.73 3-1.73 7.38v.8h-4.49v1.5h4.49v18.55q0 2.6-2.59 3-.75.12-1.79.12v1.49h16.19q0-1.32-.86-1.44-.23-.05-.52-.05m36.47 2.07q4.09 0 5.07-3.23.29-1.15.4-2.76l-1.49-.06q-.35 4.03-2.08 4.09-1.32-.11-1.32-2.88v-12.1q0-7.43-7.03-8.81-1.44-.29-3.06-.29-7.26 0-9.39 3.22-.63.93-.63 1.96 0 1.96 1.84 2.54.52.17 1.04.17 2.07 0 2.88-2.13.12-.29.35-.98.69-2.36 1.78-2.94.75-.35 1.67-.35 3.46 0 4.04 4.1.11.92.11 2.01v3.69q-15.09.23-15.15 7.89 0 4.96 4.32 6.4 1.38.46 3 .46 4.55 0 7.08-3.23.69-.98 1.1-2.01.92 5.18 5.47 5.24m-11-2.42q-3.23 0-3.46-4.61v-.58q0-3.91 3.92-4.95 1.84-.52 4.72-.58v5.25q-.98 3.91-3.69 5.12-.8.35-1.49.35m29.89.35h-1.79l.06-14.24q.4-4.61 3.46-6.33 1.09-.58 2.19-.58 3.22 0 4.09 3.4.29 1.04.29 2.3v12.33q0 2.42-1.33 2.89-.63.23-1.84.23v1.49h13.19q0-1.26-.75-1.44-.34-.05-.69-.05h-2.25v-14.58q0-6.8-4.72-8.76-1.5-.63-3.23-.63-4.15 0-7.03 3.28-.92 1.1-1.49 2.31l-.29-4.79h-9.68v1.44h3.69v18.61q0 2.54-1.91 2.94-.74.18-1.78.18v1.49h13.25q0-1.26-.75-1.44-.34-.05-.69-.05m40.46-4.1.69 5.59h9.68q0-1.26-.69-1.44-.29-.05-.75-.05h-2.71v-35.96h-11.7v1.5h5.3v13.19q-2.93-2.7-7.2-2.7-5.7 0-9.1 4.61-2.71 3.74-2.71 9.04 0 7.15 4.67 10.55 2.59 1.84 5.76 1.84 5.65 0 8.3-5.19.28-.51.46-.98m-12.22-6.91q0-8.3 3.8-10.54 1.21-.69 2.54-.69 3.98 0 5.3 5.24.52 2.13.52 4.9 0 8.06-3.57 10.71-1.27.92-2.83.92-4.26 0-5.41-6.22-.35-1.96-.35-4.32m61.12-22.07v1.56h4.73v23.39l-20.86-24.95h-9.16v1.56h4.61v31.46h-4.61v1.55h11.87q-.35-1.44-1.56-1.55h-3.34v-24.83l22.36 26.67 3.05-.57v-32.73h4.61v-1.56Zm20.99 22.13q0-8.76 3.11-10.78 1.27-.75 2.94-.75 4.38 0 5.53 4.96.57 2.42.57 6.34 0 9.27-3.51 11.18-1.15.57-2.59.57-4.33 0-5.48-4.95-.57-2.48-.57-6.57m6.28-13.02q-6.57 0-10.37 4.49-2.89 3.46-2.89 8.3 0 6.68 4.73 10.48 3.46 2.77 8.12 2.77 6.4 0 10.2-4.61 3-3.63 3-8.64 0-6.74-4.84-10.32-3.34-2.47-7.95-2.47m27.83 23.97h-1.79l.06-14.24q.4-4.61 3.45-6.33 1.1-.58 2.19-.58 3.23 0 4.09 3.4.29 1.04.29 2.3v12.33q0 2.42-1.32 2.89-.64.23-1.85.23v1.49h13.2q0-1.26-.75-1.44-.35-.05-.69-.05h-2.25v-14.58q0-6.8-4.72-8.76-1.5-.63-3.23-.63-4.15 0-7.03 3.28-.92 1.1-1.5 2.31l-.29-4.79h-9.68v1.44h3.69v18.61q0 2.54-1.9 2.94-.75.18-1.79.18v1.49h13.26q0-1.26-.75-1.44-.35-.05-.69-.05m-147.82 22.49v-1.55h-11.36l-11 25.92-12.5-25.92h-9.68v1.55h4.61v31.46h-4.61v1.56h11.64q-.35-1.44-1.56-1.56h-3.05v-22.64l12.38 24.66h1.1l12.67-29.5v27.48h-4.6v1.56h15.96q-.35-1.44-1.56-1.56h-3.05v-31.46Zm23.39 33.58q4.09 0 5.07-3.22.29-1.16.4-2.77l-1.5-.06q-.34 4.04-2.07 4.09-1.33-.11-1.33-2.88v-12.1q0-7.43-7.03-8.81-1.44-.29-3.05-.29-7.26 0-9.39 3.23-.63.92-.63 1.96 0 1.95 1.84 2.53.52.17 1.04.17 2.07 0 2.88-2.13l.34-.98q.69-2.36 1.79-2.94.75-.34 1.67-.34 3.46 0 4.03 4.09.12.92.12 2.02v3.68q-15.1.23-15.15 7.9 0 4.95 4.32 6.39 1.38.46 2.99.46 4.55 0 7.09-3.22.69-.98 1.09-2.02.93 5.18 5.48 5.24m-11.01-2.42q-3.22 0-3.45-4.61v-.57q0-3.92 3.91-4.96 1.85-.52 4.73-.57v5.24q-.98 3.92-3.69 5.13-.81.34-1.5.34m32.38.35h-4.2v-12.5q.4-5.54 3.11-7.44.63-.4 1.09-.4.75 0 1.5 1.32.98 1.85 2.08 2.19.51.18 1.09.18 2.08 0 2.94-2.02.29-.63.29-1.32 0-2.77-2.71-3.46-.69-.17-1.38-.17-3.52 0-6.28 2.88-1.21 1.32-1.9 2.99l-.35-5.41h-9.51v1.44h3.63v18.61q0 2.47-1.73 2.94-.75.17-1.9.17v1.5h15.62q0-1.33-.87-1.44-.23-.06-.52-.06m9.17-22.99v1.5h3.97v14.98q.52 8.35 7.78 8.64 4.55 0 6.16-3.63.58-1.27.93-3.05l-1.56-.23q-1.27 5.12-4.09 5.18-2.42 0-2.82-3.28-.06-.58-.06-1.15v-17.46h8.07v-1.5h-8.07v-6.68l-6.34 1.21v5.47Z"/><rect width="408.71" height="120.67" x="151.406" y="-360.055" fill="none" rx="0" ry="0" transform="translate(421.67 400.5)"/><rect width="299.22" height="42.25" x="254.669" y="-361.705" fill="#fff" stroke="transparent" rx="0" ry="0" transform="matrix(.88 0 0 .88 399.27 482.48)"/><path fill="#001f3f" stroke="transparent" d="M664.556 180.165q2.42 0 2.89 2.85.12.63.12 1.29 0 1.84-1.33 2.3-.86.24-2.5.2l-3.01-.12q.16-5.54 2.93-6.4.47-.12.9-.12m7.15 12.3-.94-.31q-1.13 2.46-3.59 3.24-.82.28-1.68.28-4.57 0-4.77-7.78v-.07l3.95.07q5.86.12 7.03-1.68.39-.62.39-1.48 0-3.09-3.13-4.65-1.95-.94-4.41-.94-4.49 0-6.88 3.25-1.68 2.3-1.68 5.58 0 5.35 3.95 7.66 2.11 1.17 4.73 1.17 4.45 0 6.44-3.16.35-.59.59-1.18m3.13-3.36v-1.64h8.21v1.64Zm11.79-1.01q0 5.35 4.02 7.58 2.07 1.13 4.77 1.13 4.06 0 6.21-2.58.66-.78 1.02-1.72l-1.02-.27q-1.21 2.58-4.06 3.24-.75.2-1.57.2-4.6-.08-4.64-7.58 0-7.15 3.16-7.89.47-.08.9-.08 1.83 0 2.26 1.6.08.35.16 1.06.27 1.71.94 2.18.51.32 1.29.36 1.75 0 2.18-1.37.08-.31.08-.59 0-1.76-2.15-3.04-1.99-1.18-4.76-1.18-4.38 0-6.84 3.05-1.95 2.38-1.95 5.9m22.23-.12q0-5.94 2.11-7.3.85-.51 1.99-.51 2.97 0 3.75 3.36.39 1.64.39 4.3 0 6.28-2.38 7.57-.79.39-1.76.39-2.93 0-3.71-3.36-.39-1.68-.39-4.45m4.25-8.83q-4.45 0-7.03 3.05-1.95 2.34-1.95 5.63 0 4.53 3.2 7.1 2.35 1.88 5.51 1.88 4.34 0 6.91-3.13 2.04-2.46 2.04-5.85 0-4.58-3.29-7-2.26-1.68-5.39-1.68m18.71 16.24h-1.05l.04-9.65q.27-3.2 2.26-4.33.63-.35 1.25-.35 1.61 0 2.27 1.91.27.86.27 1.95v8.36q0 1.61-.74 1.92-.43.19-1.29.19v1.02h8.32q0-.86-.5-.98-.24-.04-.47-.04h-1.02v-10.39q.43-2.89 2.31-3.79.5-.23 1.01-.23 1.8 0 2.5 1.99.27.9.27 1.95v8.36q0 1.61-.74 1.92-.43.19-1.29.19v1.02h8.79q0-.86-.51-.98-.23-.04-.46-.04h-1.49v-10.04q0-3.86-2.58-5.46-1.17-.75-2.54-.75-3.67 0-5.5 3.56-.08.15-.12.27-.86-2.89-3.28-3.63-.63-.2-1.29-.2-3.44 0-5.2 3.05l-.31.63-.19-3.13h-6.57v.98h2.5v12.61q0 1.72-1.29 2-.5.11-1.21.11v1.02h8.79q0-.9-.58-.98-.16-.04-.36-.04m31.68 0h-1.05l.04-9.65q.27-3.2 2.26-4.33.63-.35 1.25-.35 1.61 0 2.27 1.91.27.86.27 1.95v8.36q0 1.61-.74 1.92-.43.19-1.29.19v1.02h8.32q0-.86-.51-.98-.23-.04-.46-.04h-1.02v-10.39q.43-2.89 2.31-3.79.5-.23 1.01-.23 1.8 0 2.5 1.99.27.9.27 1.95v8.36q0 1.61-.74 1.92-.43.19-1.29.19v1.02h8.79q0-.86-.51-.98-.23-.04-.46-.04h-1.49v-10.04q0-3.86-2.58-5.46-1.17-.75-2.54-.75-3.67 0-5.5 3.56-.08.15-.12.27-.86-2.89-3.28-3.63-.63-.2-1.29-.2-3.44 0-5.2 3.05l-.31.63-.19-3.13h-6.57v.98h2.5v12.61q0 1.72-1.29 2-.5.11-1.21.11v1.02h8.79q0-.9-.58-.98-.16-.04-.36-.04m32.78-15.22q2.42 0 2.89 2.85.12.63.12 1.29 0 1.84-1.33 2.3-.86.24-2.5.2l-3.01-.12q.16-5.54 2.93-6.4.47-.12.9-.12m7.15 12.3-.94-.31q-1.13 2.46-3.59 3.24-.83.28-1.68.28-4.57 0-4.77-7.78v-.07l3.95.07q5.85.12 7.03-1.68.39-.62.39-1.48 0-3.09-3.13-4.65-1.95-.94-4.41-.94-4.49 0-6.88 3.25-1.68 2.3-1.68 5.58 0 5.35 3.95 7.66 2.11 1.17 4.73 1.17 4.45 0 6.44-3.16.35-.59.59-1.18m12.03 2.92h-2.85v-8.47q.27-3.75 2.11-5.04.43-.28.74-.28.51 0 1.01.9.67 1.25 1.41 1.49.35.11.74.11 1.41 0 1.99-1.36.2-.43.2-.9 0-1.88-1.84-2.35-.47-.11-.93-.11-2.39 0-4.26 1.95-.82.9-1.29 2.03l-.24-3.67h-6.44v.98h2.46v12.61q0 1.68-1.17 2-.51.11-1.29.11v1.02h10.59q0-.9-.59-.98-.16-.04-.35-.04m6.83-7.29q0 5.35 4.03 7.58 2.07 1.13 4.76 1.13 4.07 0 6.21-2.58.67-.78 1.02-1.72l-1.02-.27q-1.21 2.58-4.06 3.24-.74.2-1.56.2-4.61-.08-4.65-7.58 0-7.15 3.16-7.89.47-.08.9-.08 1.84 0 2.27 1.6.08.35.15 1.06.28 1.71.94 2.18.51.32 1.29.36 1.76 0 2.19-1.37.08-.31.08-.59 0-1.76-2.15-3.04-1.99-1.18-4.77-1.18-4.37 0-6.83 3.05-1.96 2.38-1.96 5.9m26.06-7.93q2.42 0 2.89 2.85.12.63.12 1.29 0 1.84-1.33 2.3-.86.24-2.5.2l-3.01-.12q.16-5.54 2.93-6.4.47-.12.9-.12m7.15 12.3-.94-.31q-1.13 2.46-3.59 3.24-.82.28-1.68.28-4.57 0-4.77-7.78v-.07l3.95.07q5.85.12 7.03-1.68.39-.62.39-1.48 0-3.09-3.13-4.65-1.95-.94-4.41-.94-4.49 0-6.88 3.25-1.68 2.3-1.68 5.58 0 5.35 3.95 7.66 2.11 1.17 4.73 1.17 4.45 0 6.44-3.16.35-.59.59-1.18"/><rect width="202.89" height="45.2" x="254.316" y="-322.315" fill="none" rx="0" ry="0" transform="translate(400.5 487.05)"/><path fill="#02112c" d="M431.416 63.115h16.992l7.744 8.864 7.824 45.728q.288 1.616 1.056 2.992a10.944 10.944 0 1 0 12.08 4.816h36.656a10.944 10.944 0 1 0 17.312-1.664 9.6 9.6 0 0 0 3.6-4.832l13.104-40.48a9.28 9.28 0 0 0-8.848-12.224h-81.36l-6.992-8h-19.168a2.4 2.4 0 1 0 0 4.8m36.416 74.288a6.16 6.16 0 1 1 0-12.304 6.16 6.16 0 0 1 0 12.304m55.232 0a6.128 6.128 0 0 1-2.096-11.888h4.192a6.128 6.128 0 0 1-2.096 11.888m15.872-66.288a4.43 4.43 0 0 1 3.632 1.872 4.38 4.38 0 0 1 .64 4.032l-2.144 6.608Zm-2.048 0 2.848 16.64-5.232 16.16-5.616-32.8Zm-10.048 0 6.32 36.912-3.04 9.44a4.48 4.48 0 0 1-2.848 2.864l-8.432-49.216Zm-10.032 0 8.432 49.44a11.2 11.2 0 0 0-5.04.16h-2.928l-8.48-49.6Zm-10.048 0 8.48 49.6h-8.016l-8.48-49.6Zm-10.048 0 8.48 49.6h-8l-8.48-49.6Zm-10.048 0 8.48 49.6h-8l-8.48-49.6Zm-10.032 0 8.48 49.6h-8.016l-8.48-49.6Zm-10.048 0 8.48 49.6h-1.92a4.56 4.56 0 0 1-4.448-3.824l-7.808-45.776Z"/><path fill="#001f3f" d="M1096.686 96.865a3.42 3.42 0 0 0 3.42-3.42v-3.42a13.68 13.68 0 0 0-13.68-13.68h-20.52v-3.42h6.84a3.42 3.42 0 0 0 3.42-3.42v-13.68a3.42 3.42 0 0 0-3.42-3.42h-54.72a3.42 3.42 0 0 0-3.42 3.42v13.68a3.43 3.43 0 0 0 3.42 3.42h6.84v3.42h-20.52a13.68 13.68 0 0 0-13.68 13.68v3.42a3.43 3.43 0 0 0 3.42 3.42h3.42v34.2h-3.42a3.42 3.42 0 0 0-3.42 3.42v10.26a3.43 3.43 0 0 0 3.42 3.42h102.6a3.42 3.42 0 0 0 3.42-3.42v-10.26a3.42 3.42 0 0 0-3.42-3.42h-3.42v-34.2Zm-75.24-37.62h47.88v6.84h-47.88Zm10.26 13.68h27.36v3.42h-27.36Zm-27.36 10.26h82.08a6.84 6.84 0 0 1 6.84 6.84h-95.76a6.84 6.84 0 0 1 6.84-6.84m88.92 58.14h-95.76v-3.42h95.76Zm-37.62-20.52v-3.42h6.84v3.42Zm-13.68 0v-3.42h6.84v3.42Zm-20.52-10.26v-3.42h47.88v3.42Zm13.68 6.84v3.42h-6.84v-3.42Zm37.62 10.26v3.42h-54.72v-3.42Zm13.68 3.42h-6.84v-6.84a3.42 3.42 0 0 0-3.42-3.42h-6.84v-3.42h3.42a3.42 3.42 0 0 0 3.42-3.42v-10.26a3.42 3.42 0 0 0-3.42-3.42h-54.72a3.42 3.42 0 0 0-3.42 3.42v10.26a3.43 3.43 0 0 0 3.42 3.42h3.42v3.42h-6.84a3.42 3.42 0 0 0-3.42 3.42v6.84h-6.84v-34.2h82.08Z"/></g><path fill="transparent" stroke="transparent" d="M380 0h740v210H380z"/></g></svg>